<?xml version="1.0" standalone="no"?>
<!DOCTYPE svg PUBLIC "-//W3C//DTD SVG 20010904//EN"
 "http://www.w3.org/TR/2001/REC-SVG-20010904/DTD/svg10.dtd">
<svg version="1.0" xmlns="http://www.w3.org/2000/svg"
 width="466.000000pt" height="466.000000pt" viewBox="0 0 466.000000 466.000000"
 preserveAspectRatio="xMidYMid meet">
<metadata>
Created by potrace 1.14, written by Peter Selinger 2001-2017
</metadata>
<g transform="translate(0.000000,466.000000) scale(0.100000,-0.100000)"
fill="#000000" stroke="none">
<path d="M2159 4656 c-2 -2 -33 -6 -69 -9 -302 -26 -658 -143 -942 -310 -189
-111 -312 -208 -479 -377 -164 -167 -326 -388 -407 -558 -15 -31 -30 -58 -34
-60 -5 -2 -8 -10 -8 -17 0 -7 -6 -26 -14 -42 -84 -164 -171 -483 -194 -708
-14 -138 -5 -544 12 -573 2 -4 7 -32 10 -62 12 -100 99 -417 126 -455 3 -5 15
-32 25 -60 57 -156 211 -412 350 -581 49 -61 259 -270 303 -304 18 -14 45 -35
60 -48 71 -61 274 -187 403 -250 334 -163 640 -235 1009 -236 305 -1 500 28
756 115 361 122 645 299 914 569 224 224 390 474 504 755 15 39 32 79 36 90
23 55 82 265 94 335 3 22 9 53 22 125 19 102 26 473 11 590 -59 469 -227 863
-524 1233 -20 26 -92 101 -158 167 -192 191 -377 322 -620 440 -226 110 -399
162 -735 220 -39 7 -445 17 -451 11z"/>
</g>
</svg>
