<?xml version="1.0" standalone="no"?>
<!DOCTYPE svg PUBLIC "-//W3C//DTD SVG 20010904//EN"
 "http://www.w3.org/TR/2001/REC-SVG-20010904/DTD/svg10.dtd">
<svg version="1.0" xmlns="http://www.w3.org/2000/svg"
 width="500.000000pt" height="500.000000pt" viewBox="0 0 500.000000 500.000000"
 preserveAspectRatio="xMidYMid meet">
<metadata>
Created by potrace 1.14, written by Peter Selinger 2001-2017
</metadata>
<g transform="translate(0.000000,500.000000) scale(0.100000,-0.100000)"
fill="#000000" stroke="none">
<path d="M811 4888 c-19 -98 -22 -111 -26 -118 -2 -3 -13 -64 -25 -136 -17
-99 -22 -174 -22 -324 -1 -107 2 -217 6 -245 16 -127 35 -233 82 -445 3 -13
27 -90 53 -170 l48 -145 -28 -33 c-16 -18 -36 -46 -45 -64 -20 -38 -50 -147
-58 -208 -3 -25 -14 -94 -25 -155 -22 -130 -27 -375 -10 -467 7 -35 25 -102
40 -150 32 -99 34 -86 -41 -272 -28 -72 -54 -150 -57 -176 -5 -47 -2 -56 99
-255 17 -33 36 -70 42 -82 6 -13 14 -23 19 -23 4 0 7 -5 7 -11 0 -11 135 -218
149 -229 4 -3 31 -36 61 -75 83 -106 95 -119 230 -255 106 -107 182 -176 225
-208 6 -4 33 -25 60 -47 68 -54 59 -48 157 -120 48 -36 90 -65 93 -65 3 0 30
-18 60 -40 30 -22 57 -40 60 -40 3 0 32 -17 63 -38 31 -21 84 -53 117 -71 33
-18 65 -36 70 -41 6 -4 69 -37 142 -74 146 -74 129 -73 248 -16 227 107 468
232 560 290 22 14 66 41 97 60 32 19 58 38 58 42 0 4 5 8 11 8 7 0 34 16 60
35 27 19 54 35 59 35 6 0 10 4 10 8 0 5 26 26 58 48 31 21 62 44 67 50 6 7 28
25 50 40 102 74 313 272 429 404 71 82 205 264 260 355 52 85 146 270 176 345
10 25 25 61 34 81 l15 37 -45 58 c-52 66 -163 233 -187 280 -15 30 -15 32 20
81 34 49 35 53 33 139 0 49 -3 103 -6 119 -3 17 -7 59 -10 95 -3 35 -9 69 -14
75 -5 6 -12 31 -15 56 -8 66 -11 80 -31 124 -20 47 -80 167 -102 205 -14 24
-13 31 22 111 119 269 196 552 223 814 8 83 8 315 -1 400 -5 44 -10 91 -11
105 -2 14 -10 54 -19 90 -8 36 -18 76 -21 90 -28 139 -49 177 -60 109 -20
-117 -106 -221 -348 -419 -17 -14 -58 -48 -91 -75 -34 -28 -81 -66 -106 -85
-25 -19 -58 -47 -75 -62 -16 -15 -37 -28 -46 -28 -9 0 -81 31 -160 69 -79 38
-178 80 -219 94 -93 31 -290 83 -350 92 -25 4 -56 8 -70 10 -106 16 -379 22
-485 11 -85 -9 -152 -18 -165 -23 -8 -4 -19 -5 -23 -4 -4 1 -65 -13 -135 -30
-130 -32 -275 -81 -352 -118 -24 -12 -52 -21 -62 -21 -10 0 -49 29 -86 64 -93
90 -135 126 -148 126 -6 0 -29 16 -51 35 -23 19 -45 35 -51 35 -5 0 -22 12
-38 26 -16 14 -42 32 -59 41 -16 9 -34 21 -41 27 -6 6 -33 29 -60 51 -27 22
-99 88 -160 147 -62 60 -114 108 -116 108 -2 0 -10 -28 -17 -62z"/>
</g>
</svg>
